{
  "asset": {
    "version": "2.0",
    "generator": "THREE.GLTFExporter r182"
  },
  "scenes": [
    {
      "name": "Scene",
      "nodes": [
        0,
        2
      ]
    }
  ],
  "scene": 0,
  "nodes": [
    {
      "translation": [
        6.6759378653638874,
        0,
        -7.9584053382398645
      ],
      "name": "autumn_tree.glb",
      "children": [
        1
      ]
    },
    {
      "translation": [
        -6.4338226318359375,
        0.14765620231628418,
        10.494241714477539
      ],
      "name": "tree",
      "extras": {
        "name": "tree"
      }
    },
    {
      "name": "firefly.glb",
      "children": [
        3
      ]
    },
    {
      "rotation": [
        0.7071068286895752,
        0,
        0,
        0.7071068286895752
      ],
      "name": "firefly",
      "extras": {
        "name": "firefly"
      },
      "children": [
        4,
        5,
        6
      ]
    },
    {
      "name": "Sphere",
      "extras": {
        "targetNames": [
          "Up/Down"
        ]
      },
      "mesh": 0
    },
    {
      "name": "Sphere_1",
      "extras": {
        "targetNames": [
          "Up/Down"
        ]
      },
      "mesh": 1
    },
    {
      "name": "Sphere_2",
      "extras": {
        "targetNames": [
          "Up/Down"
        ]
      },
      "mesh": 2
    }
  ],
  "bufferViews": [
    {
      "buffer": 0,
      "byteOffset": 0,
      "byteLength": 1008,
      "target": 34962,
      "byteStride": 12
    },
    {
      "buffer": 0,
      "byteOffset": 1008,
      "byteLength": 1008,
      "target": 34962,
      "byteStride": 12
    },
    {
      "buffer": 0,
      "byteOffset": 2016,
      "byteLength": 672,
      "target": 34962,
      "byteStride": 8
    },
    {
      "buffer": 0,
      "byteOffset": 2688,
      "byteLength": 1008,
      "target": 34962,
      "byteStride": 12
    },
    {
      "buffer": 0,
      "byteOffset": 3696,
      "byteLength": 1008,
      "target": 34962,
      "byteStride": 12
    },
    {
      "buffer": 0,
      "byteOffset": 4704,
      "byteLength": 672,
      "target": 34963
    },
    {
      "buffer": 0,
      "byteOffset": 5376,
      "byteLength": 360,
      "target": 34962,
      "byteStride": 12
    },
    {
      "buffer": 0,
      "byteOffset": 5736,
      "byteLength": 360,
      "target": 34962,
      "byteStride": 12
    },
    {
      "buffer": 0,
      "byteOffset": 6096,
      "byteLength": 240,
      "target": 34962,
      "byteStride": 8
    },
    {
      "buffer": 0,
      "byteOffset": 6336,
      "byteLength": 360,
      "target": 34962,
      "byteStride": 12
    },
    {
      "buffer": 0,
      "byteOffset": 6696,
      "byteLength": 360,
      "target": 34962,
      "byteStride": 12
    },
    {
      "buffer": 0,
      "byteOffset": 7056,
      "byteLength": 192,
      "target": 34963
    },
    {
      "buffer": 0,
      "byteOffset": 7248,
      "byteLength": 1008,
      "target": 34962,
      "byteStride": 12
    },
    {
      "buffer": 0,
      "byteOffset": 8256,
      "byteLength": 1008,
      "target": 34962,
      "byteStride": 12
    },
    {
      "buffer": 0,
      "byteOffset": 9264,
      "byteLength": 672,
      "target": 34962,
      "byteStride": 8
    },
    {
      "buffer": 0,
      "byteOffset": 9936,
      "byteLength": 1008,
      "target": 34962,
      "byteStride": 12
    },
    {
      "buffer": 0,
      "byteOffset": 10944,
      "byteLength": 1008,
      "target": 34962,
      "byteStride": 12
    },
    {
      "buffer": 0,
      "byteOffset": 11952,
      "byteLength": 672,
      "target": 34963
    },
    {
      "buffer": 0,
      "byteOffset": 12624,
      "byteLength": 20
    },
    {
      "buffer": 0,
      "byteOffset": 12644,
      "byteLength": 20
    },
    {
      "buffer": 0,
      "byteOffset": 12664,
      "byteLength": 20
    },
    {
      "buffer": 0,
      "byteOffset": 12684,
      "byteLength": 20
    },
    {
      "buffer": 0,
      "byteOffset": 12704,
      "byteLength": 20
    },
    {
      "buffer": 0,
      "byteOffset": 12724,
      "byteLength": 20
    }
  ],
  "buffers": [
    {
      "byteLength": 12744,
      "uri": "data:application/octet-stream;base64,"
    }
  ],
  "accessors": [
    {
      "bufferView": 0,
      "componentType": 5126,
      "count": 84,
      "max": [
        0.06222553551197052,
        8.994105807347275e-12,
        0.06222553923726082
      ],
      "min": [
        -0.06222552806138992,
        -0.08200391381978989,
        -0.06222553178668022
      ],
      "type": "VEC3"
    },
    {
      "bufferView": 1,
      "componentType": 5126,
      "count": 84,
      "max": [
        1,
        1,
        1
      ],
      "min": [
        -1,
        -0.0003000039141625166,
        -1
      ],
      "type": "VEC3"
    },
    {
      "bufferView": 2,
      "componentType": 5126,
      "count": 84,
      "max": [
        1,
        1
      ],
      "min": [
        0,
        0.5
      ],
      "type": "VEC2"
    },
    {
      "bufferView": 3,
      "componentType": 5126,
      "count": 84,
      "max": [
        0,
        9.467073791569192e-10,
        0.021658144891262054
      ],
      "min": [
        0,
        0,
        0.021658139303326607
      ],
      "type": "VEC3"
    },
    {
      "bufferView": 4,
      "componentType": 5126,
      "count": 84,
      "max": [
        0.000024437904357910156,
        0.00003784894943237305,
        0.000024437904357910156
      ],
      "min": [
        -0.000024437904357910156,
        -0.00003463029861450195,
        -0.000024437904357910156
      ],
      "type": "VEC3"
    },
    {
      "bufferView": 5,
      "componentType": 5123,
      "count": 336,
      "max": [
        83
      ],
      "min": [
        0
      ],
      "type": "SCALAR"
    },
    {
      "bufferView": 6,
      "componentType": 5126,
      "count": 30,
      "max": [
        0.16662386059761047,
        0.07173271477222443,
        3.135537163245772e-9
      ],
      "min": [
        -0.16662386059761047,
        -0.07173272222280502,
        -3.135536497111957e-9
      ],
      "type": "VEC3"
    },
    {
      "bufferView": 7,
      "componentType": 5126,
      "count": 30,
      "max": [
        0,
        0,
        -1
      ],
      "min": [
        0,
        0,
        -1
      ],
      "type": "VEC3"
    },
    {
      "bufferView": 8,
      "componentType": 5126,
      "count": 30,
      "max": [
        1.0000001192092896,
        1
      ],
      "min": [
        0,
        -1.1920928955078125e-7
      ],
      "type": "VEC2"
    },
    {
      "bufferView": 9,
      "componentType": 5126,
      "count": 30,
      "max": [
        0.007253497838973999,
        3.725290298461914e-9,
        0.025725897401571274
      ],
      "min": [
        -0.005891650915145874,
        -1.6594210450193714e-9,
        -0.029553068801760674
      ],
      "type": "VEC3"
    },
    {
      "bufferView": 10,
      "componentType": 5126,
      "count": 30,
      "max": [
        0.40209999680519104,
        0,
        0.0843999981880188
      ],
      "min": [
        -0.36390000581741333,
        0,
        0.06849998235702515
      ],
      "type": "VEC3"
    },
    {
      "bufferView": 11,
      "componentType": 5123,
      "count": 96,
      "max": [
        29
      ],
      "min": [
        0
      ],
      "type": "SCALAR"
    },
    {
      "bufferView": 12,
      "componentType": 5126,
      "count": 84,
      "max": [
        0.06222553551197052,
        0.08200391381978989,
        0.06222553923726082
      ],
      "min": [
        -0.06222552806138992,
        8.994105807347275e-12,
        -0.06222553178668022
      ],
      "type": "VEC3"
    },
    {
      "bufferView": 13,
      "componentType": 5126,
      "count": 84,
      "max": [
        1,
        0,
        1
      ],
      "min": [
        -1,
        -1,
        -1
      ],
      "type": "VEC3"
    },
    {
      "bufferView": 14,
      "componentType": 5126,
      "count": 84,
      "max": [
        1,
        0.5
      ],
      "min": [
        0,
        0
      ],
      "type": "VEC2"
    },
    {
      "bufferView": 15,
      "componentType": 5126,
      "count": 84,
      "max": [
        0,
        9.467073791569192e-10,
        0.021658144891262054
      ],
      "min": [
        0,
        0,
        0.021658139303326607
      ],
      "type": "VEC3"
    },
    {
      "bufferView": 16,
      "componentType": 5126,
      "count": 84,
      "max": [
        0.000024437904357910156,
        0.00003463029861450195,
        0.000024437904357910156
      ],
      "min": [
        -0.000024437904357910156,
        -0.00003784894943237305,
        -0.000024437904357910156
      ],
      "type": "VEC3"
    },
    {
      "bufferView": 17,
      "componentType": 5123,
      "count": 336,
      "max": [
        83
      ],
      "min": [
        0
      ],
      "type": "SCALAR"
    },
    {
      "bufferView": 18,
      "componentType": 5126,
      "count": 5,
      "max": [
        0.1666666716337204
      ],
      "min": [
        0
      ],
      "type": "SCALAR"
    },
    {
      "bufferView": 19,
      "componentType": 5126,
      "count": 5,
      "max": [
        1
      ],
      "min": [
        -1
      ],
      "type": "SCALAR"
    },
    {
      "bufferView": 20,
      "componentType": 5126,
      "count": 5,
      "max": [
        0.1666666716337204
      ],
      "min": [
        0
      ],
      "type": "SCALAR"
    },
    {
      "bufferView": 21,
      "componentType": 5126,
      "count": 5,
      "max": [
        1
      ],
      "min": [
        -1
      ],
      "type": "SCALAR"
    },
    {
      "bufferView": 22,
      "componentType": 5126,
      "count": 5,
      "max": [
        0.1666666716337204
      ],
      "min": [
        0
      ],
      "type": "SCALAR"
    },
    {
      "bufferView": 23,
      "componentType": 5126,
      "count": 5,
      "max": [
        1
      ],
      "min": [
        -1
      ],
      "type": "SCALAR"
    }
  ],
  "materials": [
    {
      "pbrMetallicRoughness": {
        "baseColorFactor": [
          0.7991026043891907,
          0.6724427938461304,
          0.0578056201338768,
          1
        ],
        "metallicFactor": 0,
        "roughnessFactor": 1
      },
      "emissiveFactor": [
        1,
        0.8414974374412468,
        0.0723381701127875
      ],
      "doubleSided": true,
      "name": "body",
      "extensions": {
        "KHR_materials_emissive_strength": {
          "emissiveStrength": 1.5982052087783813
        }
      }
    },
    {
      "pbrMetallicRoughness": {
        "baseColorFactor": [
          0.7991026043891907,
          0.6724427938461304,
          0.0578056201338768,
          1
        ],
        "metallicFactor": 0,
        "roughnessFactor": 0.5
      },
      "emissiveFactor": [
        1,
        0.8127735941378652,
        0.06119389194374165
      ],
      "doubleSided": true,
      "name": "Wings",
      "extensions": {
        "KHR_materials_emissive_strength": {
          "emissiveStrength": 7.99102783203125
        }
      }
    },
    {
      "pbrMetallicRoughness": {
        "baseColorFactor": [
          0.7991026043891907,
          0.6724427938461304,
          0.0578056201338768,
          1
        ],
        "metallicFactor": 0,
        "roughnessFactor": 0.5
      },
      "emissiveFactor": [
        1,
        0.8399227857589722,
        0.0693090409040451
      ],
      "doubleSided": true,
      "name": "body back",
      "extensions": {
        "KHR_materials_emissive_strength": {
          "emissiveStrength": 4
        }
      }
    }
  ],
  "meshes": [
    {
      "weights": [
        -0.3116004802004023
      ],
      "extras": {
        "targetNames": [
          "Up/Down"
        ]
      },
      "primitives": [
        {
          "mode": 4,
          "attributes": {
            "POSITION": 0,
            "NORMAL": 1,
            "TEXCOORD_0": 2
          },
          "targets": [
            {
              "POSITION": 3,
              "NORMAL": 4
            }
          ],
          "indices": 5,
          "material": 0
        }
      ]
    },
    {
      "weights": [
        -0.3116004802004023
      ],
      "extras": {
        "targetNames": [
          "Up/Down"
        ]
      },
      "primitives": [
        {
          "mode": 4,
          "attributes": {
            "POSITION": 6,
            "NORMAL": 7,
            "TEXCOORD_0": 8
          },
          "targets": [
            {
              "POSITION": 9,
              "NORMAL": 10
            }
          ],
          "indices": 11,
          "material": 1
        }
      ]
    },
    {
      "weights": [
        -0.3116004802004023
      ],
      "extras": {
        "targetNames": [
          "Up/Down"
        ]
      },
      "primitives": [
        {
          "mode": 4,
          "attributes": {
            "POSITION": 12,
            "NORMAL": 13,
            "TEXCOORD_0": 14
          },
          "targets": [
            {
              "POSITION": 15,
              "NORMAL": 16
            }
          ],
          "indices": 17,
          "material": 2
        }
      ]
    }
  ],
  "animations": [
    {
      "name": "KeyAction.001",
      "samplers": [
        {
          "input": 18,
          "output": 19,
          "interpolation": "LINEAR"
        },
        {
          "input": 20,
          "output": 21,
          "interpolation": "LINEAR"
        },
        {
          "input": 22,
          "output": 23,
          "interpolation": "LINEAR"
        }
      ],
      "channels": [
        {
          "sampler": 0,
          "target": {
            "node": 4,
            "path": "weights"
          }
        },
        {
          "sampler": 1,
          "target": {
            "node": 5,
            "path": "weights"
          }
        },
        {
          "sampler": 2,
          "target": {
            "node": 6,
            "path": "weights"
          }
        }
      ]
    }
  ],
  "extensionsUsed": [
    "KHR_materials_emissive_strength"
  ]
}